<svg id="test-svg" viewBox="0 0 1080 1920" fill="none" xmlns="http://www.w3.org/2000/svg">
    <rect width="1080" height="1920" fill="white" />
    <defs>
        <filter id="MyFilter" filterUnits="userSpaceOnUse" x="0" y="0" width="200" height="120">
            <feGaussianBlur in="SourceAlpha" stdDeviation="4" result="blur" />
        </filter>
    </defs>
    <g filter="url(#MyFilter)" id="t1" clip-path="url(#clip0_23_432)">
        <rect x="810" y="1220" width="180" height="90" fill="black" />
        <rect x="990" y="1280" width="90" height="640" fill="black" />
        <rect x="990" y="960" width="90" height="290" fill="black" />
        <rect x="720" y="960" width="90" height="550" fill="black" />
        <rect x="720" y="1510" width="90" height="410" fill="black" />
    </g>
    <g id="i" clip-path="url(#clip1_23_432)">
        <rect x="450" y="1220" width="180" height="90" fill="black" />
        <rect x="450" y="960" width="180" height="90" fill="black" />
        <rect x="630" y="1310" width="90" height="610" fill="black" />
        <rect x="630" y="960" width="90" height="350" fill="black" />
        <rect x="360" y="960" width="90" height="550" fill="black" />
        <rect x="360" y="1510" width="90" height="410" fill="black" />
    </g>
    <g id="k1" clip-path="url(#clip2_23_432)">
        <rect x="180" y="960" width="180" height="90" fill="black" />
        <rect y="960" width="180" height="90" fill="black" />
        <rect x="135" y="1050" width="90" height="550" fill="black" />
        <rect x="135" y="1600" width="90" height="320" fill="black" />
    </g>
    <g id="t2" clip-path="url(#clip3_23_432)">
        <rect x="810" y="260" width="180" height="90" fill="black" />
        <rect x="990" y="320" width="90" height="640" fill="black" />
        <rect x="990" width="90" height="290" fill="black" />
        <rect x="720" width="90" height="550" fill="black" />
        <rect x="720" y="550" width="90" height="410" fill="black" />
    </g>
    <g id="a" clip-path="url(#clip4_23_432)">
        <rect x="495" width="90" height="640" fill="black" />
        <rect x="495" y="640" width="90" height="320" fill="black" />
    </g>
    <g id="k2" clip-path="url(#clip5_23_432)">
        <rect x="180" width="180" height="90" fill="black" />
        <rect width="180" height="90" fill="black" />
        <rect x="135" y="90" width="90" height="550" fill="black" />
        <rect x="135" y="640" width="90" height="320" fill="black" />
    </g>
    <!-- <defs>
      <clipPath id="clip0_23_399">
        <rect width="360" height="960" fill="white" transform="translate(0 960)" />
      </clipPath>
      <clipPath id="clip1_23_399">
        <rect width="360" height="960" fill="white" />
      </clipPath>
      <clipPath id="clip2_23_399">
        <rect width="360" height="960" fill="white" transform="translate(360 960)" />
      </clipPath>
    </defs> -->
</svg>