<svg id="test-svg" viewBox="0 0 2160 1920" fill="white" xmlns="http://www.w3.org/2000/svg">
    <g id="links-gschmeus">
        <rect width="180" height="440" fill="black" />
        <rect x="90" y="1630" width="180" height="10" fill="black" />
        <rect x="90" y="1670" width="180" height="10" fill="black" />
        <rect x="360" y="1740" width="720" height="180" fill="black" />
        <rect x="315" y="1480" width="765" height="10" fill="black" />
        <rect x="360" y="1620" width="720" height="90" fill="black" />
        <rect x="90" y="1740" width="180" height="180" fill="black" />
    </g>
    <g id="k1">
        <rect x="810" y="780" width="180" height="180" fill="black" />
        <rect x="810" y="780" width="180" height="180" fill="black" />
        <rect x="990" y="960" width="90" height="320" fill="black" />
        <rect x="990" width="90" height="250" fill="black" />
        <rect x="990" y="250" width="90" height="250" fill="black" />
        <rect x="720" width="90" height="1100" fill="black" />
        <rect x="720" y="1100" width="90" height="180" fill="black" />
        <rect x="945" y="1270" width="135" height="10" fill="black" />
        <rect x="945" width="135" height="10" fill="black" />
        <rect x="990" y="640" width="90" height="140" fill="black" />
        <rect x="990" y="500" width="90" height="140" fill="black" />
    </g>
    <g id="a">
        <rect x="450" y="780" width="180" height="180" fill="black" />
        <rect x="450" width="180" height="180" fill="black" />
        <rect x="630" y="700" width="90" height="740" fill="black" />
        <rect x="630" width="90" height="700" fill="black" />
        <rect x="360" width="90" height="1100" fill="black" />
        <rect x="360" y="1100" width="90" height="340" fill="black" />
        <rect x="315" y="1430" width="180" height="10" fill="black" />
        <rect x="315" width="180" height="10" fill="black" />
        <rect x="585" y="1430" width="180" height="10" fill="black" />
    </g>
    <g id="t1">
        <rect x="180" y="480" width="180" height="180" fill="black" />
        <rect y="480" width="180" height="180" fill="black" />
        <path d="M135 660H225V1600H135V660Z" fill="black" />
        <rect x="90" y="1590" width="180" height="10" fill="black" />
    </g>
    <g id="rechts-gschmeus">
        <rect x="1080" y="1740" width="630" height="180" fill="black" />
        <rect x="1620" y="110" width="540" height="180" fill="black" />
        <rect x="1080" y="1660" width="630" height="10" fill="black" />
        <rect x="1080" y="1700" width="630" height="10" fill="black" />
        <rect x="1080" y="70" width="450" height="90" fill="black" />
        <rect x="1710" y="50" width="450" height="10" fill="black" />
    </g>
    <g id="k2">
        <rect x="2070" y="1120" width="90" height="720" fill="black" />
        <rect x="2070" y="320" width="90" height="620" fill="black" />
        <rect x="1800" y="320" width="90" height="870.833" fill="black" />
        <rect x="1800" y="1190.83" width="90" height="649.167" fill="black" />
        <rect width="130" height="10" transform="matrix(1 0 0 -1 2030 330)" fill="black" />
        <rect x="1890" y="940" width="180" height="180" fill="black" />
        <rect width="130" height="10" transform="matrix(1 0 0 -1 1760 330)" fill="black" />
        <rect width="130" height="10" transform="matrix(1 0 0 -1 1760 1840)" fill="black" />
        <rect width="130" height="10" transform="matrix(1 0 0 -1 2030 1840)" fill="black" />
    </g>
    <g id="i">
        <rect x="1575" y="320" width="90" height="800" fill="black" />
        <rect x="1575" y="1120" width="90" height="320" fill="black" />
        <rect x="1530" y="320" width="180" height="10" fill="black" />
        <rect x="1530" y="1430" width="180" height="10" fill="black" />
    </g>
    <g id="t2">
        <rect x="1260" y="319" width="180" height="180" fill="black" />
        <rect x="1080" y="319" width="180" height="180" fill="black" />
        <rect x="1215" y="499" width="90" height="692" fill="black" />
        <rect x="1215" y="1191" width="90" height="408" fill="black" />
        <rect x="1170" y="1590" width="180" height="10" fill="black" />
    </g>
</svg>