<svg width="2160" height="1920" viewBox="0 0 2160 1920" fill="none" xmlns="http://www.w3.org/2000/svg">
    <rect width="2160" height="1920" fill="white" />
    <rect x="1080" width="1080" height="1920" fill="black" />
    <g id="k1">
        <rect x="810" y="780" width="180" height="180" fill="black" />
        <rect x="990" y="960" width="90" height="320" fill="black" />
        <rect x="990" width="90" height="780" fill="black" />
        <rect x="720" width="90" height="1100" fill="black" />
        <rect x="720" y="1100" width="90" height="180" fill="black" />
        <rect x="945.5" y="1270.5" width="179" height="9" fill="black" />
        <rect x="945.5" y="0.5" width="179" height="9" fill="black" />
    </g>
    <g id="a">
        <rect x="450" y="780" width="180" height="180" fill="black" />
        <rect x="450" width="180" height="180" fill="black" />
        <rect x="630" y="700" width="90" height="730" fill="black" />
        <rect x="630" width="90" height="700" fill="black" />
        <rect x="360" y="10" width="90" height="1090" fill="black" />
        <rect x="360" y="1100" width="90" height="330" fill="black" />
        <rect x="315.5" y="0.5" width="179" height="9" fill="black" />
        <rect x="315.5" y="1430.5" width="179" height="9" fill="black" />
        <rect x="585.5" y="1430.5" width="179" height="9" fill="black" />
    </g>
    <g id="t1">
        <rect x="180" y="480" width="180" height="180" fill="black" />
        <rect y="480" width="180" height="180" fill="black" />
        <path d="M135 660H225V1590H135V660Z" fill="black" />
        <rect x="90.5" y="1590.5" width="179" height="9" fill="black" />
    </g>
    <g id="i">
        <rect x="1575" y="252" width="90" height="799" fill="white" />
        <rect x="1575" y="1051" width="90" height="319" fill="white" />
        <circle cx="1620" cy="114" r="60" fill="white" />
        <rect x="1530.5" y="1361.5" width="179" height="9" fill="white" />
        <rect x="1530.5" y="252.5" width="179" height="9" fill="white" />
    </g>
    <g id="t2">
        <rect x="1260" y="249" width="180" height="180" fill="white" />
        <rect x="1080" y="249" width="180" height="180" fill="white" />
        <rect x="1215" y="429" width="90" height="692" fill="white" />
        <rect x="1215" y="1121" width="90" height="398" fill="white" />
        <rect x="1170.5" y="1519.5" width="179" height="9" fill="white" />
    </g>
    <g id="k2">
        <rect x="1890" y="867.5" width="180" height="142.5" fill="white" />
        <rect x="2070" y="1010" width="90" height="760" fill="white" />
        <rect x="2070" y="250" width="90" height="617.5" fill="white" />
        <rect x="1800" y="250" width="90" height="870.833" fill="white" />
        <rect x="1800" y="1120.83" width="90" height="649.167" fill="white" />
        <rect x="0.5" y="-0.5" width="129" height="8.5" transform="matrix(1 0 0 -1 2030 258.5)" fill="white" />
        <rect x="0.5" y="-0.5" width="129" height="9" transform="matrix(1 0 0 -1 1760 1769)" fill="white" />
        <rect x="0.5" y="-0.5" width="129" height="8.5" transform="matrix(1 0 0 -1 2030 1768.5)" fill="white" />
        <rect x="0.5" y="-0.5" width="129" height="9" transform="matrix(1 0 0 -1 1760 259)" fill="white" />
    </g>
    <g id="left">
        <rect width="180" height="440" fill="black" />
        <rect x="90.5" y="1630.5" width="179" height="9" fill="black" />
        <rect x="90.5" y="1670.5" width="179" height="9" fill="black" />
        <rect x="360" y="1740" width="720" height="180" fill="black" />
        <rect x="315.5" y="1480.5" width="764" height="9" fill="black" />
        <rect x="360.5" y="1620.5" width="719" height="89" fill="black" />
        <rect x="90.5" y="1740.5" width="179" height="179" fill="black" />
    </g>
    <g id="right">
        <rect x="1080" y="1670" width="630" height="180" fill="white" />
        <rect x="1800" y="40" width="360" height="180" fill="white" />
        <rect x="1080" y="1585" width="630" height="10" fill="white" />
        <rect x="1080" y="1630" width="630" height="10" fill="white" />
        <rect x="1530" width="90" height="450" transform="rotate(90 1530 0)" fill="white" />
    </g>
</svg>