<svg width="2160" height="1920" viewBox="0 0 2160 1920" fill="none" xmlns="http://www.w3.org/2000/svg">
    <g clip-path="url(#clip0_217_252)">
        <rect x="1820" y="370" width="80" height="440" fill="black" />
        <rect x="1820" y="810" width="220" height="160" fill="black" />
        <rect x="1820" y="1470" width="80" height="80" fill="black" />
        <rect x="1780" y="1550" width="120" height="10" fill="black" />
        <rect x="2040" y="370" width="80" height="230" fill="black" />
        <rect x="2040" y="600" width="80" height="210" fill="black" />
        <rect x="2040" y="970" width="80" height="580" fill="black" />
        <rect x="2000" y="1550" width="160" height="10" fill="black" />
        <rect x="1780" y="360" width="120" height="10" fill="black" />
        <rect x="2000" y="360" width="160" height="10" fill="black" />
        <rect x="1820" y="970" width="80" height="500" fill="black" />
    </g>
    <g clip-path="url(#clip1_217_252)">
        <rect x="626" y="370" width="80" height="489" fill="black" />
        <rect x="486" y="360" width="140" height="160" fill="black" />
        <rect x="406" y="370" width="80" height="680" fill="black" />
        <rect x="486" y="810" width="140" height="160" fill="black" />
        <rect x="366" y="1550" width="160" height="10" fill="black" />
        <rect x="366" y="360" width="120" height="10" fill="black" />
        <rect x="586" y="1550" width="160" height="10" fill="black" />
        <rect x="626" y="360" width="120" height="10" fill="black" />
        <rect x="626" y="859" width="80" height="691" fill="black" />
        <rect x="406" y="1050" width="80" height="500" fill="black" />
    </g>
    <g clip-path="url(#clip2_217_252)">
        <rect x="1240" y="360" width="150" height="160" fill="black" />
        <rect x="1390" y="360" width="150" height="160" fill="black" />
        <rect x="1350" y="520" width="80" height="1030" fill="black" />
        <rect x="1310" y="1550" width="160" height="10" fill="black" />
    </g>
    <g clip-path="url(#clip3_217_252)">
        <rect x="860" y="370" width="80" height="440" fill="black" />
        <rect x="860" y="810" width="220" height="160" fill="black" />
        <rect x="860" y="970" width="80" height="580" fill="black" />
        <rect x="820" y="1550" width="120" height="10" fill="black" />
        <rect x="1080" y="370" width="80" height="440" fill="black" />
        <rect x="1080" y="970" width="80" height="580" fill="black" />
        <rect x="1040" y="1550" width="160" height="10" fill="black" />
        <rect x="820" y="360" width="120" height="10" fill="black" />
        <rect x="1040" y="360" width="160" height="10" fill="black" />
    </g>
    <g clip-path="url(#clip4_217_252)">
        <rect x="1610" y="805" width="80" height="745" fill="black" />
        <rect x="1610" y="370" width="80" height="238" fill="black" />
        <rect x="1610" y="608" width="80" height="197" fill="black" />
        <rect x="1570" y="1550" width="160" height="10" fill="black" />
        <rect x="1570" y="360" width="160" height="10" fill="black" />
    </g>
    <g clip-path="url(#clip5_217_252)">
        <rect y="360" width="300" height="160" fill="black" />
        <rect x="110" y="520" width="80" height="358" fill="black" />
        <rect x="110" y="878" width="80" height="672" fill="black" />
        <rect x="70" y="1550" width="160" height="10" fill="black" />
    </g>
    <g clip-path="url(#clip6_217_252)">
        <rect x="70" y="1760" width="336" height="80" fill="black" />
        <rect x="586" y="1760" width="834" height="160" fill="black" />
        <rect x="1690" y="1690" width="430" height="80" fill="black" />
        <rect x="70" y="1690" width="516" height="10" fill="black" />
        <rect x="706" y="1690" width="904" height="10" fill="black" />
        <rect x="1540" y="1830" width="580" height="10" fill="black" />
        <rect x="70" y="1620" width="416" height="10" fill="black" />
    </g>
    <g clip-path="url(#clip7_217_252)">
        <rect x="640" y="150" width="440" height="80" fill="black" />
        <rect y="70" width="480" height="160" fill="black" />
        <rect x="1610" width="290" height="80" fill="black" />
        <rect x="820" y="70" width="420" height="10" fill="black" />
        <rect x="1240" y="151" width="660" height="10" fill="black" />
        <rect x="2000" y="220" width="160" height="10" fill="black" />
        <rect y="290" width="706" height="10" fill="black" />
    </g>
    <defs>
        <clipPath id="clip0_217_252">
            <rect width="380" height="1200" fill="white" transform="translate(1780 360)" />
        </clipPath>
        <clipPath id="clip1_217_252">
            <rect width="406" height="1200" fill="white" transform="translate(340 360)" />
        </clipPath>
        <clipPath id="clip2_217_252">
            <rect width="300" height="1200" fill="white" transform="translate(1240 360)" />
        </clipPath>
        <clipPath id="clip3_217_252">
            <rect width="380" height="1200" fill="white" transform="translate(820 360)" />
        </clipPath>
        <clipPath id="clip4_217_252">
            <rect width="160" height="1200" fill="white" transform="translate(1570 360)" />
        </clipPath>
        <clipPath id="clip5_217_252">
            <rect width="300" height="1200" fill="white" transform="translate(0 360)" />
        </clipPath>
        <clipPath id="clip6_217_252">
            <rect width="2160" height="300" fill="white" transform="translate(0 1620)" />
        </clipPath>
        <clipPath id="clip7_217_252">
            <rect width="2160" height="300" fill="white" />
        </clipPath>
    </defs>
</svg>