<svg width="1080" height="1920" viewBox="0 0 1080 1920" fill="none" xmlns="http://www.w3.org/2000/svg">
    <rect width="1080" height="1920" fill="white" />
    <g id="k2" clip-path="url(#clip0_37_96)">
        <rect x="810" y="1220" width="180" height="90" fill="black" />
        <rect x="990" y="1280" width="90" height="640" fill="black" />
        <rect x="990" y="960" width="90" height="290" fill="black" />
        <rect x="765" y="960" width="90" height="550" fill="black" />
        <rect x="720" y="1510" width="90" height="410" fill="black" />
    </g>
    <g id="a" clip-path="url(#clip1_37_96)">
        <rect x="450" y="1220" width="180" height="90" fill="black" />
        <rect x="450" y="960" width="180" height="90" fill="black" />
        <rect x="630" y="1310" width="90" height="610" fill="black" />
        <rect x="630" y="1050" width="90" height="260" fill="black" />
        <rect x="360" y="960" width="90" height="550" fill="black" />
        <rect x="360" y="1510" width="90" height="410" fill="black" />
    </g>
    <g id="t2">
        <rect x="180" y="1050" width="180" height="90" fill="black" />
        <rect y="1050" width="180" height="90" fill="black" />
        <rect x="135" y="1050" width="90" height="550" fill="black" />
        <rect x="135" y="1600" width="90" height="320" fill="black" />
    </g>
    <g id="k1" clip-path="url(#clip2_37_96)">
        <rect x="810" y="230" width="180" height="90" fill="black" />
        <rect x="990" y="320" width="90" height="640" fill="black" />
        <rect x="990" width="90" height="290" fill="black" />
        <rect x="720" width="90" height="550" fill="black" />
        <rect x="720" y="550" width="90" height="410" fill="black" />
    </g>
    <g id="i" clip-path="url(#clip3_37_96)">
        <rect x="450" y="180" width="90" height="460" fill="black" />
        <rect x="495" y="640" width="90" height="320" fill="black" />
        <circle cx="630" cy="90" r="90" fill="black" />
    </g>
    <g id="t1" clip-path="url(#clip4_37_96)">
        <rect x="180" y="45" width="180" height="90" fill="black" />
        <rect width="180" height="90" fill="black" />
        <rect x="135" y="90" width="90" height="550" fill="black" />
        <rect x="135" y="640" width="90" height="320" fill="black" />
    </g>
</svg>